Coordinates
version=1
nRows=65
nColumns=12
inDegrees=yes

Units are S.I. units (second, meters, Newtons, ...)
Angles are in degrees

endheader
time	SC_y	SC_z	SC_x	AC_y	AC_z	AC_x	GH_y	GH_z	GH_yy	EL_x	PS_y
       0.0               -55.3           24.0          53.44          45.44         -7.765          8.972          168.6         -13.64         -20.49          57.29          125.5
   0.04691              -55.29           24.0          53.44          45.44         -7.764           8.97          168.6         -13.62         -20.49           57.3          125.5
   0.09381              -55.29          23.99          53.44          45.44         -7.764          8.967          168.6         -13.61          -20.5          57.31          125.5
    0.1407              -55.28          23.99          53.44          45.44         -7.764          8.964          168.6         -13.59          -20.5          57.31          125.4
    0.1876              -55.28          23.99          53.43          45.44         -7.763          8.961          168.6         -13.57         -20.51          57.32          125.4
    0.2345              -55.27          23.98          53.43          45.44         -7.763          8.957          168.5         -13.55         -20.52          57.33          125.4
    0.2814              -55.26          23.98          53.43          45.43         -7.762          8.954          168.5         -13.53         -20.53          57.34          125.4
    0.3283              -55.25          23.97          53.42          45.43         -7.761           8.95          168.5         -13.51         -20.53          57.35          125.4
    0.3753              -55.24          23.97          53.42          45.43         -7.761          8.946          168.4         -13.49         -20.54          57.37          125.3
    0.4222              -55.23          23.96          53.42          45.43          -7.76          8.941          168.4         -13.46         -20.55          57.38          125.3
    0.4691              -55.22          23.95          53.41          45.42         -7.759          8.937          168.3         -13.43         -20.56          57.39          125.3
     0.516              -55.21          23.95          53.41          45.42         -7.758          8.932          168.3          -13.4         -20.57          57.41          125.2
    0.5629               -55.2          23.94          53.41          45.42         -7.758          8.926          168.3         -13.37         -20.58          57.42          125.2
    0.6098              -55.19          23.93           53.4          45.42         -7.757           8.92          168.2         -13.34          -20.6          57.44          125.2
    0.6567              -55.17          23.92           53.4          45.41         -7.756          8.914          168.1          -13.3         -20.61          57.46          125.1
    0.7036              -55.16          23.92          53.39          45.41         -7.755          8.907          168.1         -13.26         -20.63          57.48          125.1
    0.7505              -55.14          23.91          53.39           45.4         -7.753          8.899          168.0         -13.22         -20.64           57.5          125.0
    0.7974              -55.12           23.9          53.38           45.4         -7.752          8.891          168.0         -13.17         -20.66          57.52          125.0
    0.8443               -55.1          23.88          53.37          45.39         -7.751          8.882          167.9         -13.12         -20.68          57.55          124.9
    0.8912              -55.08          23.87          53.37          45.39         -7.749          8.872          167.8         -13.06          -20.7          57.58          124.8
    0.9381              -55.05          23.86          53.36          45.38         -7.747          8.862          167.7          -13.0         -20.72          57.61          124.8
     0.985              -55.03          23.84          53.35          45.38         -7.745           8.85          167.6         -12.93         -20.75          57.64          124.7
     1.032               -55.0          23.82          53.34          45.37         -7.743          8.837          167.5         -12.86         -20.77          57.68          124.6
     1.079              -54.97          23.81          53.33          45.36         -7.741          8.822          167.4         -12.78         -20.81          57.72          124.5
     1.126              -54.93          23.78          53.31          45.35         -7.739          8.806          167.2         -12.68         -20.84          57.77          124.4
     1.173              -54.89          23.76           53.3          45.34         -7.736          8.788          167.1         -12.58         -20.88          57.82          124.3
      1.22              -54.85          23.74          53.29          45.33         -7.732          8.768          166.9         -12.46         -20.92          57.87          124.2
     1.266               -54.8          23.71          53.27          45.32         -7.729          8.745          166.7         -12.33         -20.97          57.94          124.0
     1.313              -54.74          23.67          53.25          45.31         -7.725          8.719          166.5         -12.18         -21.02          58.01          123.8
      1.36              -54.67          23.63          53.23          45.29          -7.72           8.69          166.2         -12.02         -21.09           58.1          123.6
     1.407               -54.6          23.59           53.2          45.27         -7.715          8.657          165.9         -11.83         -21.16          58.19          123.4
     1.454              -54.52          23.54          53.17          45.25         -7.709          8.619          165.6         -11.61         -21.24           58.3          123.2
     1.501              -54.42          23.49          53.14          45.23         -7.702          8.575          165.2         -11.35         -21.33          58.43          122.9
     1.548               -54.3          23.42           53.1           45.2         -7.694          8.523          164.8         -11.06         -21.44          58.57          122.5
     1.595              -54.17          23.34          53.05          45.16         -7.684          8.463          164.3         -10.72         -21.57          58.74          122.1
     1.642              -54.01          23.25           53.0          45.13         -7.673          8.393          163.7         -10.31         -21.72          58.95          121.7
     1.689              -53.83          23.14          52.93          45.08          -7.66          8.309          162.9         -9.827          -21.9          59.19          121.1
     1.736               -53.6          23.01          52.86          45.02         -7.644          8.208          162.1         -9.249         -22.11          59.47          120.5
     1.782              -53.33          22.85          52.76          44.96         -7.624          8.086          161.0          -8.55         -22.37          59.82          119.6
     1.829               -53.0          22.66          52.65          44.88         -7.601          7.938          159.8         -7.696         -22.69          60.25          118.7
     1.876               -52.6          22.42          52.51          44.77         -7.572          7.754          158.2         -6.641         -23.08          60.77          117.4
     1.923              -52.09          22.13          52.34          44.65         -7.536          7.525          156.2         -5.326         -23.56          61.42          115.9
      1.97              -51.45          21.75          52.11          44.49          -7.49          7.237          153.7          -3.67         -24.17          62.25          114.0
     2.017              -50.63          21.28          51.83          44.29         -7.432           6.87          150.6         -1.564         -24.95           63.3          111.6
     2.064              -49.59          20.67          51.48          44.03         -7.357          6.401          146.6          1.131         -25.95          64.64          108.5
     2.111              -48.25          19.89          51.02           43.7         -7.262          5.799          141.4          4.589         -27.23          66.36          104.5
     2.158              -46.54           18.9          50.43          43.28          -7.14           5.03          134.8          9.007         -28.87          68.55          99.43
     2.205               -44.4          17.65          49.69          42.74         -6.987          4.063          126.5          14.56         -30.92          71.32          93.03
     2.252              -41.78          16.12          48.79           42.1           -6.8          2.884          116.3          21.33         -33.43          74.69          85.24
     2.298              -38.75          14.36          47.74          41.34         -6.583          1.518          104.6          29.18         -36.33          78.59           76.2
     2.345              -35.46          12.44          46.61          40.53         -6.349        0.03868          91.88          37.67         -39.47          82.81          66.42
     2.392              -32.18          10.53          45.48          39.72         -6.114         -1.441          79.17          46.17         -42.62          87.04          56.63
     2.439              -29.14           8.76          44.44          38.97         -5.898         -2.807          67.43          54.02         -45.52          90.94           47.6
     2.486              -26.52          7.235          43.54          38.32         -5.711         -3.985          57.31          60.78         -48.02          94.31           39.8
     2.533              -24.38          5.984           42.8          37.79         -5.558         -4.952           49.0          66.34         -50.08          97.08          33.41
      2.58              -22.67          4.989          42.21          37.36         -5.436         -5.721          42.39          70.76         -51.72          99.27          28.32
     2.627              -21.33           4.21          41.75          37.03          -5.34         -6.324          37.21          74.22         -52.99          101.0          24.34
     2.674              -20.29          3.603          41.39          36.77         -5.266         -6.793          33.18          76.91         -53.99          102.3          21.23
     2.721              -19.47          3.128          41.11          36.57         -5.208         -7.159          30.03          79.02         -54.77          103.4          18.81
     2.767              -18.83          2.755          40.89          36.41         -5.162         -7.448          27.55          80.67         -55.38          104.2           16.9
     2.814              -18.33          2.459          40.71          36.29         -5.126         -7.677          25.59          81.99         -55.87          104.9          15.39
     2.861              -17.92          2.221          40.57          36.19         -5.097          -7.86          24.01          83.04         -56.26          105.4          14.17
     2.908              -17.59          2.029          40.46           36.1         -5.073         -8.009          22.73           83.9         -56.58          105.8          13.19
     2.955              -17.32          1.871          40.37          36.04         -5.054         -8.131          21.68           84.6         -56.84          106.2          12.38
     3.002              -17.09          1.741          40.29          35.98         -5.038         -8.231          20.82          85.17         -57.05          106.4          11.72
